# xmcd
#
# Track frame offsets:
# 150
# 19385
# 39417
# 59482
# 79392
# 91530
# 113120
# 132237
# 155012
# 170570
# 188365
# 207055
# 222825
# 236587
# 258085
# 273150
#
# Disc length: 3851 seconds
#
#
# Revision: 5
# Processed by: cddbd v1.5.2PL0 Copyright (c) Steve Scherf et al.
# Submitted via: FreeRIP 2.951 
#
DISCID=d20f0910
DTITLE=Christian e Ralf - acústico
DYEAR=1900
DGENRE=Sertanejo
TTITLE0=Cheiro de shampoo
TTITLE1=Sem documento
TTITLE2=Sou eu
TTITLE3=Trato e trato
TTITLE4=Saudade
TTITLE5=Desejo de amar
TTITLE6=Chora peito
TTITLE7=Yolanda
TTITLE8=La copa rota
TTITLE9=Oito segundos
TTITLE10=O que será de mim
TTITLE11=Ausência
TTITLE12=O que tiver que vir vira
TTITLE13=Noite
TTITLE14=Sensível demais
TTITLE15=Nova York
EXTD=
EXTT0=
EXTT1=
EXTT2=
EXTT3=
EXTT4=
EXTT5=
EXTT6=
EXTT7=
EXTT8=
EXTT9=
EXTT10=
EXTT11=
EXTT12=
EXTT13=
EXTT14=
EXTT15=
PLAYORDER=
